<mxfile host="app.diagrams.net" modified="2023-01-31T06:49:35.954Z" agent="5.0 (Windows NT 10.0; Win64; x64) AppleWebKit/537.36 (KHTML, like Gecko) Chrome/109.0.0.0 Safari/537.36" version="20.7.4" etag="FQjPR2jHVNgc72_MOILD" type="github">
  <diagram id="GoDEbYAdJBX1x8ZbmqKt" name="第 1 页">
    <mxGraphModel dx="1259" dy="679" grid="1" gridSize="10" guides="1" tooltips="1" connect="1" arrows="1" fold="1" page="1" pageScale="1" pageWidth="827" pageHeight="1169" math="0" shadow="0">
      <root>
        <mxCell id="0" />
        <mxCell id="1" parent="0" />
        <mxCell id="goCht8gUib1bU70o5O4r-12" style="edgeStyle=orthogonalEdgeStyle;rounded=0;orthogonalLoop=1;jettySize=auto;html=1;exitX=0.5;exitY=1;exitDx=0;exitDy=0;entryX=0.5;entryY=0;entryDx=0;entryDy=0;" edge="1" parent="1" source="goCht8gUib1bU70o5O4r-8" target="goCht8gUib1bU70o5O4r-10">
          <mxGeometry relative="1" as="geometry" />
        </mxCell>
        <mxCell id="goCht8gUib1bU70o5O4r-8" value="创建工作目录" style="rounded=0;whiteSpace=wrap;html=1;fillColor=none;" vertex="1" parent="1">
          <mxGeometry x="80" y="189" width="120" height="30" as="geometry" />
        </mxCell>
        <mxCell id="goCht8gUib1bU70o5O4r-13" style="edgeStyle=orthogonalEdgeStyle;rounded=0;orthogonalLoop=1;jettySize=auto;html=1;exitX=0.5;exitY=1;exitDx=0;exitDy=0;entryX=0.5;entryY=0;entryDx=0;entryDy=0;" edge="1" parent="1" source="goCht8gUib1bU70o5O4r-10" target="goCht8gUib1bU70o5O4r-11">
          <mxGeometry relative="1" as="geometry" />
        </mxCell>
        <mxCell id="goCht8gUib1bU70o5O4r-10" value="设置虚拟工作环境" style="rounded=0;whiteSpace=wrap;html=1;fillColor=none;" vertex="1" parent="1">
          <mxGeometry x="80" y="239" width="120" height="30" as="geometry" />
        </mxCell>
        <mxCell id="goCht8gUib1bU70o5O4r-15" style="edgeStyle=orthogonalEdgeStyle;rounded=0;orthogonalLoop=1;jettySize=auto;html=1;exitX=0.5;exitY=1;exitDx=0;exitDy=0;entryX=0.5;entryY=0;entryDx=0;entryDy=0;" edge="1" parent="1" source="goCht8gUib1bU70o5O4r-11" target="goCht8gUib1bU70o5O4r-14">
          <mxGeometry relative="1" as="geometry" />
        </mxCell>
        <mxCell id="goCht8gUib1bU70o5O4r-11" value="准备任务所需模块" style="rounded=0;whiteSpace=wrap;html=1;fillColor=none;" vertex="1" parent="1">
          <mxGeometry x="80" y="289" width="120" height="30" as="geometry" />
        </mxCell>
        <mxCell id="goCht8gUib1bU70o5O4r-20" style="edgeStyle=orthogonalEdgeStyle;rounded=0;orthogonalLoop=1;jettySize=auto;html=1;exitX=0.5;exitY=1;exitDx=0;exitDy=0;entryX=0.5;entryY=0;entryDx=0;entryDy=0;" edge="1" parent="1" source="goCht8gUib1bU70o5O4r-14" target="goCht8gUib1bU70o5O4r-18">
          <mxGeometry relative="1" as="geometry" />
        </mxCell>
        <mxCell id="goCht8gUib1bU70o5O4r-21" style="edgeStyle=orthogonalEdgeStyle;rounded=0;orthogonalLoop=1;jettySize=auto;html=1;exitX=0.5;exitY=1;exitDx=0;exitDy=0;entryX=0.5;entryY=0;entryDx=0;entryDy=0;" edge="1" parent="1" source="goCht8gUib1bU70o5O4r-14" target="goCht8gUib1bU70o5O4r-17">
          <mxGeometry relative="1" as="geometry" />
        </mxCell>
        <mxCell id="goCht8gUib1bU70o5O4r-22" style="edgeStyle=orthogonalEdgeStyle;rounded=0;orthogonalLoop=1;jettySize=auto;html=1;exitX=0.5;exitY=1;exitDx=0;exitDy=0;entryX=0.5;entryY=0;entryDx=0;entryDy=0;" edge="1" parent="1" source="goCht8gUib1bU70o5O4r-14" target="goCht8gUib1bU70o5O4r-19">
          <mxGeometry relative="1" as="geometry" />
        </mxCell>
        <mxCell id="goCht8gUib1bU70o5O4r-14" value="注册钩子应用" style="rounded=0;whiteSpace=wrap;html=1;fillColor=none;" vertex="1" parent="1">
          <mxGeometry x="80" y="339" width="120" height="30" as="geometry" />
        </mxCell>
        <mxCell id="goCht8gUib1bU70o5O4r-28" style="edgeStyle=orthogonalEdgeStyle;rounded=0;orthogonalLoop=1;jettySize=auto;html=1;entryX=0.5;entryY=0;entryDx=0;entryDy=0;fontSize=11;" edge="1" parent="1" source="goCht8gUib1bU70o5O4r-17" target="goCht8gUib1bU70o5O4r-25">
          <mxGeometry relative="1" as="geometry">
            <Array as="points">
              <mxPoint x="90" y="450" />
              <mxPoint x="60" y="450" />
            </Array>
          </mxGeometry>
        </mxCell>
        <mxCell id="goCht8gUib1bU70o5O4r-29" style="edgeStyle=orthogonalEdgeStyle;rounded=0;orthogonalLoop=1;jettySize=auto;html=1;exitX=0.5;exitY=1;exitDx=0;exitDy=0;entryX=0.5;entryY=0;entryDx=0;entryDy=0;fontSize=11;" edge="1" parent="1" source="goCht8gUib1bU70o5O4r-17" target="goCht8gUib1bU70o5O4r-27">
          <mxGeometry relative="1" as="geometry">
            <Array as="points">
              <mxPoint x="90" y="450" />
              <mxPoint x="110" y="450" />
            </Array>
          </mxGeometry>
        </mxCell>
        <mxCell id="goCht8gUib1bU70o5O4r-17" value="train&lt;br&gt;Loop" style="rounded=0;whiteSpace=wrap;html=1;fillColor=none;" vertex="1" parent="1">
          <mxGeometry x="70" y="400" width="40" height="40" as="geometry" />
        </mxCell>
        <mxCell id="goCht8gUib1bU70o5O4r-18" value="eval&lt;br style=&quot;border-color: var(--border-color);&quot;&gt;Loop" style="rounded=0;whiteSpace=wrap;html=1;fillColor=none;" vertex="1" parent="1">
          <mxGeometry x="120" y="400" width="40" height="40" as="geometry" />
        </mxCell>
        <mxCell id="goCht8gUib1bU70o5O4r-19" value="test&lt;br style=&quot;border-color: var(--border-color);&quot;&gt;Loop" style="rounded=0;whiteSpace=wrap;html=1;fillColor=none;" vertex="1" parent="1">
          <mxGeometry x="170" y="400" width="40" height="40" as="geometry" />
        </mxCell>
        <mxCell id="goCht8gUib1bU70o5O4r-23" value="循环控制器Lazy Initialize" style="rounded=0;whiteSpace=wrap;html=1;fillColor=none;" vertex="1" parent="1">
          <mxGeometry x="257" y="404" width="80" height="30" as="geometry" />
        </mxCell>
        <mxCell id="goCht8gUib1bU70o5O4r-24" value="" style="endArrow=none;dashed=1;html=1;dashPattern=1 3;strokeWidth=2;rounded=0;" edge="1" parent="1">
          <mxGeometry width="50" height="50" relative="1" as="geometry">
            <mxPoint x="214" y="419.4" as="sourcePoint" />
            <mxPoint x="254" y="419.4" as="targetPoint" />
          </mxGeometry>
        </mxCell>
        <mxCell id="goCht8gUib1bU70o5O4r-25" value="&lt;span style=&quot;color: rgb(38, 38, 38); font-family: FreightSans, &amp;quot;Helvetica Neue&amp;quot;, Helvetica, Arial, sans-serif; letter-spacing: 0.01px; text-align: left; background-color: rgb(255, 255, 255);&quot;&gt;&lt;font style=&quot;font-size: 11px;&quot;&gt;&lt;font style=&quot;font-size: 11px;&quot;&gt;&lt;font style=&quot;font-size: 11px;&quot;&gt;Epoch&lt;br style=&quot;font-size: 11px;&quot;&gt;Based&lt;/font&gt;&lt;/font&gt;&lt;br&gt;&lt;/font&gt;&lt;/span&gt;" style="rounded=0;whiteSpace=wrap;html=1;fillColor=none;" vertex="1" parent="1">
          <mxGeometry x="40" y="462" width="40" height="30" as="geometry" />
        </mxCell>
        <mxCell id="goCht8gUib1bU70o5O4r-27" value="&lt;span style=&quot;color: rgb(38, 38, 38); font-family: FreightSans, &amp;quot;Helvetica Neue&amp;quot;, Helvetica, Arial, sans-serif; letter-spacing: 0.01px; text-align: left; background-color: rgb(255, 255, 255);&quot;&gt;&lt;span style=&quot;font-size: 11px;&quot;&gt;Iter&lt;/span&gt;&lt;font size=&quot;1&quot;&gt;&lt;br&gt;&lt;/font&gt;&lt;span style=&quot;font-size: 11px;&quot;&gt;Based&lt;/span&gt;&lt;/span&gt;" style="rounded=0;whiteSpace=wrap;html=1;fillColor=none;" vertex="1" parent="1">
          <mxGeometry x="90" y="462" width="40" height="30" as="geometry" />
        </mxCell>
        <mxCell id="goCht8gUib1bU70o5O4r-31" style="edgeStyle=orthogonalEdgeStyle;rounded=0;orthogonalLoop=1;jettySize=auto;html=1;entryX=0.5;entryY=0;entryDx=0;entryDy=0;fontSize=11;" edge="1" parent="1" source="goCht8gUib1bU70o5O4r-30" target="goCht8gUib1bU70o5O4r-8">
          <mxGeometry relative="1" as="geometry" />
        </mxCell>
        <mxCell id="goCht8gUib1bU70o5O4r-34" style="edgeStyle=orthogonalEdgeStyle;rounded=0;orthogonalLoop=1;jettySize=auto;html=1;exitX=1;exitY=0.5;exitDx=0;exitDy=0;fontSize=11;" edge="1" parent="1" source="goCht8gUib1bU70o5O4r-30" target="goCht8gUib1bU70o5O4r-32">
          <mxGeometry relative="1" as="geometry" />
        </mxCell>
        <mxCell id="goCht8gUib1bU70o5O4r-30" value="多用户后台管理" style="rounded=0;whiteSpace=wrap;html=1;fontSize=11;fillColor=none;" vertex="1" parent="1">
          <mxGeometry x="80" y="140" width="120" height="30" as="geometry" />
        </mxCell>
        <mxCell id="goCht8gUib1bU70o5O4r-32" value="配置文件" style="text;html=1;strokeColor=none;fillColor=none;align=center;verticalAlign=middle;whiteSpace=wrap;rounded=0;fontSize=11;" vertex="1" parent="1">
          <mxGeometry x="257" y="209" width="60" height="30" as="geometry" />
        </mxCell>
        <mxCell id="goCht8gUib1bU70o5O4r-37" style="edgeStyle=orthogonalEdgeStyle;rounded=0;orthogonalLoop=1;jettySize=auto;html=1;entryX=1;entryY=0.5;entryDx=0;entryDy=0;fontSize=11;" edge="1" parent="1" source="goCht8gUib1bU70o5O4r-35" target="goCht8gUib1bU70o5O4r-11">
          <mxGeometry relative="1" as="geometry">
            <Array as="points">
              <mxPoint x="240" y="241" />
              <mxPoint x="240" y="304" />
            </Array>
          </mxGeometry>
        </mxCell>
        <mxCell id="goCht8gUib1bU70o5O4r-35" value="" style="rounded=0;whiteSpace=wrap;html=1;fontSize=11;fillColor=none;dashed=1;" vertex="1" parent="1">
          <mxGeometry x="251" y="212" width="70" height="58" as="geometry" />
        </mxCell>
        <mxCell id="goCht8gUib1bU70o5O4r-33" value="构建模块" style="text;html=1;strokeColor=none;fillColor=none;align=center;verticalAlign=middle;whiteSpace=wrap;rounded=0;fontSize=11;" vertex="1" parent="1">
          <mxGeometry x="257" y="239" width="60" height="30" as="geometry" />
        </mxCell>
      </root>
    </mxGraphModel>
  </diagram>
</mxfile>
